<svg width="555" height="711" viewBox="0 0 555 711" fill="none" xmlns="http://www.w3.org/2000/svg">
<path d="M127.555 686.604L138.755 691.374L162.495 650.472L145.964 643.432L127.555 686.604Z" fill="#A0616A"/>
<path d="M220.108 697.197L232.282 697.196L238.075 650.266L220.105 650.267L220.108 697.197Z" fill="#A0616A"/>
<path d="M219.68 709.888L257.118 709.886V709.413C257.118 705.551 255.583 701.847 252.85 699.116C250.117 696.385 246.411 694.851 242.546 694.851L235.707 689.666L222.948 694.852H219.68V709.888Z" fill="#2F2E41"/>
<path d="M120.744 694.729L155.185 709.396L155.371 708.961C156.886 705.408 156.927 701.399 155.484 697.816C154.042 694.233 151.234 691.369 147.679 689.855H147.678L143.421 682.406L129.649 682.177L126.643 680.896L120.744 694.729Z" fill="#2F2E41"/>
<path d="M232.05 419.451L250.552 532.045L245.517 548.823L252.124 560.706L242.421 665.065L246.36 673.732L235.355 680.514H212.961L211.773 586.037L206.241 572.166V564.521L194.98 506.911L193.779 578.455L190.184 585.385L157.978 669.64H132.867L134.809 654.688C130.31 652.412 141.564 645.759 142.645 640.837L138.948 632.523L142.645 616.818L151.162 573.144L142.46 521.358L145.577 488.027L143.954 476.625L144.077 472.937C144.077 472.937 148.369 471.282 144.27 467.151C138.596 435.003 145.577 428.026 145.577 428.026L173.517 411.684L232.05 419.451Z" fill="#2F2E41"/>
<path d="M186.991 271.171C201.006 271.171 212.367 259.817 212.367 245.811C212.367 231.805 201.006 220.451 186.991 220.451C172.976 220.451 161.615 231.805 161.615 245.811C161.615 259.817 172.976 271.171 186.991 271.171Z" fill="#A0616A"/>
<path d="M155.178 197.165C155.297 198.619 155.097 200.081 154.589 201.449C154.082 202.817 153.281 204.058 152.243 205.083C151.204 206.108 149.953 206.893 148.578 207.383C147.203 207.873 145.737 208.055 144.283 207.918L129.539 240.176L119.754 224.555L135.256 196.317C135.649 193.892 136.919 191.696 138.824 190.144C140.729 188.593 143.138 187.793 145.593 187.898C148.049 188.002 150.381 189.003 152.148 190.711C153.914 192.419 154.992 194.715 155.178 197.165Z" fill="#A0616A"/>
<path d="M233.713 421.876C233.766 422.256 233.726 422.643 233.597 423.005C233.467 423.366 233.253 423.691 232.971 423.952C232.689 424.213 232.348 424.401 231.978 424.502C231.607 424.603 231.218 424.613 230.842 424.531C217.556 421.662 162.729 428.548 144.569 447.043C144.225 447.397 143.781 447.637 143.296 447.729C142.812 447.821 142.311 447.762 141.861 447.559C141.411 447.356 141.035 447.02 140.784 446.596C140.532 446.171 140.418 445.68 140.456 445.189C140.777 441.212 146.559 423.224 146.559 423.224L148.321 412.014C148.361 411.753 148.361 411.488 148.321 411.227L146.705 401.952C146.618 401.468 146.385 401.021 146.038 400.671L145.49 400.124C145.041 399.674 144.789 399.065 144.789 398.43C144.789 397.794 145.041 397.185 145.49 396.735L147.613 394.626C147.871 394.363 148.066 394.045 148.183 393.696C148.301 393.348 148.339 392.977 148.294 392.611L145.477 371.794C145.464 371.754 145.464 371.7 145.45 371.66L133.005 305.979C132.909 305.46 132.986 304.924 133.225 304.454C133.464 303.983 133.851 303.605 134.327 303.377L155.478 293.275C155.698 293.173 155.901 293.038 156.079 292.875L170.848 279.183C171.287 278.784 171.856 278.557 172.45 278.543L198.996 278.342C199.364 278.342 199.728 278.426 200.059 278.588C200.39 278.75 200.679 278.986 200.905 279.277L208.984 289.779C209.271 290.15 209.661 290.428 210.105 290.579L215.58 292.434L231.39 297.799L232.124 298.052C232.578 298.209 232.974 298.499 233.26 298.885C233.546 299.271 233.709 299.734 233.727 300.214C233.738 300.285 233.742 300.356 233.74 300.427L229.787 382.176C229.776 382.536 229.839 382.895 229.974 383.23L231.871 387.647C232.06 388.095 232.108 388.59 232.011 389.066C231.913 389.543 231.673 389.978 231.323 390.316C230.762 390.85 230.121 391.464 229.721 391.917C228.906 392.811 230.642 399.897 230.909 400.925C230.933 401.012 230.951 401.102 230.963 401.192L231.937 408.518C231.994 408.948 231.932 409.386 231.758 409.783C231.583 410.181 231.304 410.523 230.949 410.773C230.679 410.965 230.452 411.212 230.283 411.497C230.114 411.781 230.006 412.098 229.965 412.427C229.925 412.756 229.954 413.09 230.05 413.407C230.145 413.724 230.306 414.018 230.522 414.269L232.658 416.791C232.95 417.148 233.139 417.577 233.206 418.032L233.713 421.876Z" fill="#3F3D56"/>
<path d="M180.5 269.931C180.392 269.692 180.284 269.453 180.176 269.213C180.217 269.214 180.258 269.22 180.3 269.221L180.5 269.931Z" fill="#2F2E41"/>
<path d="M270.852 413.532C270.975 412.078 270.778 410.615 270.274 409.246C269.771 407.877 268.973 406.634 267.937 405.606C266.901 404.578 265.652 403.79 264.278 403.297C262.904 402.804 261.438 402.617 259.985 402.751L245.323 370.455L235.498 386.051L250.927 414.329C251.314 416.754 252.578 418.954 254.48 420.51C256.381 422.067 258.787 422.872 261.243 422.774C263.699 422.676 266.034 421.681 267.805 419.978C269.575 418.274 270.66 415.981 270.852 413.532Z" fill="#A0616A"/>
<path d="M250.981 379.626L250.167 381.147L241.581 397.187L240.379 399.429L231.993 387.886L204.473 350.015L208.385 326.261L215.582 296.503L226.251 295.889L233.729 298.945C236.914 300.351 239.527 302.797 241.138 305.882C242.749 308.967 243.263 312.508 242.595 315.923L235.972 349.814L250.981 379.626Z" fill="#3F3D56"/>
<path d="M209.084 222.993C208.704 220.887 207.856 218.892 206.6 217.158C205.968 216.407 205.184 215.797 204.3 215.369C203.415 214.942 202.451 214.705 201.469 214.675C200.487 214.645 199.51 214.823 198.601 215.196C197.693 215.57 196.873 216.13 196.196 216.842C196.593 215.689 196.709 214.458 196.533 213.252C194.68 214.14 192.697 214.73 190.659 214.998L195.162 210.299L172.747 212.357C170.434 212.57 167.932 212.871 166.233 214.627C164.534 216.383 164.44 220.132 166.587 221.112C162.356 219.519 157.498 221.83 154.706 225.703C151.915 229.575 150.887 234.683 150.698 239.639C150.454 246.065 151.652 252.906 155.577 257.636C158.143 260.73 161.643 262.659 164.483 265.442L164.568 265.526C167.678 268.714 171.578 271.023 175.87 272.218C180.163 273.413 184.695 273.452 189.008 272.33C189.492 272.197 189.973 272.049 190.456 271.911C192.872 273.003 195.88 271.511 197.405 269.083C199.031 266.494 199.352 263.182 199.421 260.027C199.511 255.9 199.256 251.774 198.66 247.69C197.988 243.091 197.382 237.201 201.027 234.891C203.864 233.093 207.39 234.868 210.246 236.628C210.521 232.051 210.129 227.458 209.084 222.993Z" fill="#2F2E41"/>
<path d="M154.973 340.392L138.065 339.172L108.719 303.266L86.9355 272.062L91.9515 259.378L115.666 225.426L115.42 222.494L118.044 222.021L118.091 218.49L120.269 218.836L126.102 210.484L139.455 221.159L131.904 243.329L131.444 247.848L128.831 252.349L130.108 258.524L125.115 263.259L122.71 270.318C133.083 277.135 142.92 287.334 152.51 300.099L154.973 340.392Z" fill="#3F3D56"/>
<path d="M385.413 379.443L383.58 396.43L384.659 418.707L335.285 412.845L330.645 379.443L336.556 379.5L385.413 379.443Z" fill="#FFB6B6"/>
<path d="M342.422 323.609L354.154 316.574L359.779 307.898L377.138 310.567L398.358 324.783L398.15 357.024L384.993 390.465L329.852 383.43L327.756 371.634C327.756 371.634 312.504 351.162 328.93 339.437L342.422 323.609Z" fill="#3F3D56"/>
<path d="M272.006 227.872C271.45 229.057 271.16 230.349 271.158 231.658C271.156 232.966 271.441 234.259 271.993 235.446C272.545 236.632 273.35 237.683 274.353 238.525C275.355 239.367 276.53 239.979 277.794 240.318L315.993 312.346L331.411 300.454L289.015 233.392C289.444 231.231 289.065 228.988 287.949 227.088C286.834 225.188 285.06 223.762 282.963 223.082C280.867 222.402 278.593 222.514 276.574 223.396C274.554 224.279 272.929 225.872 272.006 227.872Z" fill="#FFB6B6"/>
<path d="M334.665 336.685C334.665 336.685 331.125 339.823 326.091 331.16C322.061 324.224 301.963 293.169 299.118 282.403C297.557 282.447 296.025 281.971 294.765 281.05C293.505 280.128 292.587 278.814 292.156 277.313L313.745 268.939C318.438 271.284 317.135 274.535 315.945 276.216L323.985 288.268L350.729 318.262L337.264 334.463L334.665 336.685Z" fill="#3F3D56"/>
<path d="M411.023 687.876H400.228L395.09 646.266H411.023V687.876Z" fill="#FFB6B6"/>
<path d="M416.72 706.566H408.978L407.597 699.262L404.058 706.566H383.526C382.542 706.566 381.583 706.252 380.79 705.669C379.998 705.086 379.412 704.266 379.119 703.327C378.826 702.388 378.842 701.38 379.162 700.45C379.483 699.52 380.093 698.717 380.903 698.158L397.299 686.842V679.457L414.545 680.486L416.72 706.566Z" fill="#2F2E41"/>
<path d="M350.386 687.876H339.591L334.453 646.266H350.386V687.876Z" fill="#FFB6B6"/>
<path d="M356.085 706.566H348.344L346.962 699.262L343.423 706.566H322.891C321.907 706.566 320.948 706.252 320.156 705.669C319.363 705.086 318.777 704.266 318.485 703.327C318.192 702.388 318.207 701.38 318.528 700.45C318.849 699.52 319.459 698.717 320.268 698.158L336.665 686.842V679.457L353.91 680.486L356.085 706.566Z" fill="#2F2E41"/>
<path d="M415.678 651.994H415.561L413.485 584.337C414.829 581.747 415.51 578.865 415.47 575.949C415.429 573.032 414.668 570.17 413.253 567.619L412.956 567.081L413.726 563.511C414.716 558.924 414.262 554.144 412.426 549.825L410.489 486.714C417.408 441.9 384.434 412.674 384.434 412.674H335.037L331.507 424.795L327.731 428.001L329.16 432.851L325.061 438.676L324.432 449.087C317.421 517.347 318.693 583.865 329.818 648.309L329.515 648.462C328.94 648.783 328.51 649.313 328.315 649.941C328.12 650.57 328.175 651.25 328.469 651.839C328.983 653.328 330.285 654.229 331.377 653.852L357.464 652.945C358.039 652.625 358.469 652.095 358.664 651.466C358.859 650.838 358.804 650.158 358.51 649.568C357.996 648.08 356.694 647.179 355.602 647.556L353.828 648.452L357.611 583.166L357.191 571.241L358.056 557.712L362.055 496.86L377.19 571.691L392.651 652.747C392.224 653.133 391.925 653.639 391.792 654.198C391.66 654.758 391.7 655.344 391.908 655.88C392.115 656.416 392.481 656.877 392.956 657.201C393.431 657.525 393.993 657.698 394.569 657.696H415.678C416.435 657.696 417.161 657.396 417.696 656.861C418.231 656.326 418.531 655.601 418.531 654.845C418.531 654.089 418.231 653.364 417.696 652.829C417.161 652.294 416.435 651.994 415.678 651.994Z" fill="#2F2E41"/>
<path d="M469.777 440.51C470.298 439.31 470.55 438.01 470.514 436.702C470.478 435.394 470.155 434.11 469.569 432.94C468.983 431.77 468.147 430.743 467.12 429.93C466.094 429.118 464.901 428.541 463.627 428.239L423.342 357.355L408.277 369.692L452.614 435.489C452.248 437.662 452.693 439.893 453.863 441.76C455.033 443.626 456.848 444.999 458.964 445.618C461.079 446.237 463.349 446.059 465.342 445.117C467.335 444.176 468.913 442.537 469.777 440.51Z" fill="#FFB6B6"/>
<path d="M395.001 324.734C395.001 324.734 398.447 321.495 403.732 330.007C407.963 336.822 437.926 376.116 441.085 386.794C442.644 386.705 444.189 387.136 445.475 388.02C446.762 388.905 447.718 390.192 448.192 391.679L426.857 400.679C422.098 398.472 419.881 394.343 421.021 392.628L412.633 380.815L381.182 344.528L392.468 327.031L395.001 324.734Z" fill="#3F3D56"/>
<path d="M554.443 708.928C554.444 709.201 554.39 709.47 554.286 709.722C554.183 709.973 554.03 710.203 553.837 710.396C553.644 710.588 553.415 710.74 553.163 710.844C552.911 710.948 552.641 711.002 552.369 711.001H2.15994C1.60994 711.001 1.08193 710.783 0.692932 710.394C0.303932 710.005 0.0859375 709.478 0.0859375 708.928C0.0859375 708.379 0.303932 707.85 0.692932 707.462C1.08193 707.073 1.60994 706.855 2.15994 706.855H552.369C552.641 706.854 552.911 706.907 553.163 707.011C553.415 707.115 553.644 707.268 553.837 707.461C554.03 707.654 554.183 707.881 554.286 708.133C554.39 708.385 554.444 708.656 554.443 708.928Z" fill="#CCCCCC"/>
<path d="M351.342 261.108C344.16 275.257 348.852 291.645 362.18 300.263C376.593 309.582 395.307 307.541 401.359 289.432C408.1 269.265 402.562 260.613 390.521 250.277C376.411 238.165 359.103 245.822 351.342 261.108Z" fill="#2F2E41"/>
<path d="M386.701 292.626C383.044 297.413 377.635 300.554 371.663 301.359C365.69 302.163 359.642 300.566 354.847 296.917C350.053 293.269 346.903 287.867 346.091 281.899C345.278 275.932 346.869 269.886 350.514 265.089L350.712 264.83C354.437 260.171 359.845 257.161 365.771 256.451C371.696 255.741 377.663 257.386 382.385 261.033C387.107 264.68 390.206 270.036 391.012 275.946C391.818 281.855 390.268 287.845 386.695 292.622L386.701 292.626Z" fill="#FFB6B6"/>
<path d="M344.383 258.818C348.079 262.332 352.584 264.883 357.5 266.245C358.485 265.106 359.654 264.139 360.957 263.383C360.333 264.68 359.905 266.062 359.688 267.485C361.881 272.032 370.836 275.3 379.395 278.644L390.731 258.65L375.726 250.153C363.669 241.822 349.475 245.378 344.383 258.818Z" fill="#2F2E41"/>
<path d="M399.282 250.302C400.376 249.899 401.554 249.776 402.708 249.945C403.862 250.113 404.956 250.568 405.889 251.267C407.716 252.654 409.193 254.45 410.202 256.509C412.037 259.842 413.356 263.433 414.113 267.161C414.76 270.386 414.65 274.285 411.755 275.968C409.339 277.372 405.885 276.488 403.664 274.614C401.606 272.647 400.045 270.221 399.11 267.533C398.191 264.866 396.827 262.372 395.076 260.159L397.077 261.092C396.444 259.174 396.15 257.16 396.206 255.141C396.251 254.137 396.559 253.161 397.099 252.312C397.639 251.464 398.391 250.771 399.282 250.302Z" fill="#2F2E41"/>
<path d="M373.329 252.924L389.428 262.04C391.583 263.26 393.477 264.893 395.001 266.845C396.525 268.797 397.649 271.03 398.309 273.416C398.97 275.802 399.154 278.295 398.85 280.752C398.547 283.209 397.762 285.582 396.54 287.737C392.947 294.072 387.12 298.841 380.196 301.112C373.272 303.383 365.75 302.992 359.1 300.016L373.81 287.038L353.854 297.199L349.594 294.787C370.995 290.898 375.124 274.12 373.329 252.924Z" fill="#2F2E41"/>
<path d="M217.869 0L164.908 88.118L218.049 119.472L217.869 0Z" fill="#8C8C8C"/>
<path d="M271.062 88.118L217.869 0L218.049 119.472L271.062 88.118Z" fill="#333333"/>
<path d="M164.908 88.118L217.985 63.9414L218.049 119.472L164.908 88.118Z" fill="#383838"/>
<path d="M271.061 88.118L217.984 63.9414L218.099 117.442L271.061 88.118Z" fill="#141414"/>
<path d="M270.932 98.209L217.92 129.563V172.811L270.932 98.209Z" fill="#333333"/>
<path d="M164.906 98.209L217.92 129.563V172.811L164.906 98.209Z" fill="#8C8C8C"/>
</svg>
